<?xml version="1.0" standalone="no"?>
<!DOCTYPE svg PUBLIC "-//W3C//DTD SVG 20010904//EN"
 "http://www.w3.org/TR/2001/REC-SVG-20010904/DTD/svg10.dtd">
<svg version="1.0" xmlns="http://www.w3.org/2000/svg"
 width="400.000000pt" height="400.000000pt" viewBox="0 0 400.000000 400.000000"
 preserveAspectRatio="xMidYMid meet">
<metadata>
Created by potrace 1.11, written by Peter Selinger 2001-2013
</metadata>
<g transform="translate(0.000000,400.000000) scale(0.100000,-0.100000)"
fill="#000000" stroke="none">
<path d="M1770 3985 c-101 -14 -325 -62 -350 -75 -16 -8 -198 -71 -215 -74
-51 -9 -388 -215 -435 -266 -8 -9 -40 -35 -70 -57 -61 -46 -180 -167 -226
-228 -16 -22 -41 -53 -56 -70 -16 -16 -28 -33 -28 -36 0 -3 -11 -19 -24 -34
-29 -34 -138 -215 -173 -288 -19 -39 -62 -157 -68 -187 0 -3 -6 -15 -13 -27
-7 -13 -10 -23 -6 -23 3 0 2 -6 -3 -12 -20 -25 -67 -232 -88 -383 -11 -82 -12
-393 -2 -455 2 -14 8 -47 12 -75 4 -27 11 -66 15 -85 5 -19 11 -46 14 -60 8
-44 43 -164 56 -195 7 -16 14 -35 15 -41 8 -37 59 -170 75 -197 11 -18 28 -49
37 -69 10 -21 21 -38 25 -38 5 0 8 -6 8 -13 0 -14 107 -175 151 -227 16 -19
53 -64 81 -99 58 -72 150 -162 206 -200 20 -14 43 -33 49 -42 16 -21 218 -159
232 -159 6 0 11 -4 11 -10 0 -5 6 -10 14 -10 7 0 19 -7 26 -15 7 -9 15 -14 17
-11 3 2 20 -6 39 -19 19 -13 58 -31 87 -41 29 -9 98 -34 154 -56 56 -22 114
-41 128 -42 14 -1 28 -6 32 -9 3 -4 17 -7 30 -7 14 0 32 -4 42 -10 10 -5 38
-12 62 -15 24 -2 64 -9 89 -14 75 -16 530 -13 587 4 26 8 57 14 68 14 11 -1
30 2 43 5 21 6 50 13 82 21 8 2 15 4 15 5 0 1 15 3 33 6 18 2 42 9 54 15 11 6
43 19 71 29 29 10 76 27 105 38 28 11 52 19 52 17 0 -2 23 7 50 21 28 14 50
29 50 33 0 4 6 8 13 8 14 0 110 57 150 90 16 13 33 21 38 17 5 -3 9 -1 9 5 0
6 12 17 28 25 15 9 45 31 67 51 22 19 57 47 78 62 52 36 182 171 230 238 21
30 42 55 47 55 5 0 19 17 31 38 13 20 27 42 31 47 26 33 112 174 144 237 53
105 54 106 54 120 0 7 18 58 40 113 22 55 42 109 45 120 2 11 7 31 10 45 7 28
16 70 19 85 1 6 4 15 7 20 3 6 5 27 4 48 0 20 2 37 6 37 10 0 11 20 15 290 2
156 -1 281 -7 305 -5 22 -12 62 -14 89 -3 26 -8 53 -12 60 -4 6 -8 20 -9 31
-2 32 -33 132 -71 228 -19 48 -36 95 -38 105 -12 67 -201 386 -255 433 -10 9
-30 34 -45 55 -37 55 -177 197 -243 247 -31 23 -65 50 -75 60 -19 19 -242 167
-251 167 -3 0 -26 14 -53 30 -42 26 -110 53 -293 117 -25 8 -49 17 -55 18 -5
1 -17 5 -25 8 -12 5 -126 31 -180 42 -16 3 -81 14 -128 21 -72 12 -385 11
-472 -1z"/>
</g>
</svg>
